<svg xmlns="http://www.w3.org/2000/svg">
  <symbol id="i-phone" viewBox="0 0 24 24" fill="none" stroke="currentColor" stroke-width="2" stroke-linecap="round" stroke-linejoin="round">
    <path d="M22 16.9v3a2 2 0 0 1-2.2 2 19.8 19.8 0 0 1-8.6-3 19.5 19.5 0 0 1-6-6 19.8 19.8 0 0 1-3-8.6A2 2 0 0 1 4.1 2h3a2 2 0 0 1 2 1.7c.1 1 .4 1.9.7 2.8a2 2 0 0 1-.5 2.1L8.1 9.9a16 16 0 0 0 6 6l1.3-1.3a2 2 0 0 1 2.1-.4c.9.3 1.8.6 2.8.7a2 2 0 0 1 1.7 2z"/>
  </symbol>
  <symbol id="i-arrow" viewBox="0 0 24 24" fill="none" stroke="currentColor" stroke-width="2.2" stroke-linecap="round" stroke-linejoin="round">
    <path d="M5 12h14M13 6l6 6-6 6"/>
  </symbol>
  <symbol id="i-check" viewBox="0 0 24 24" fill="none" stroke="currentColor" stroke-width="2.4" stroke-linecap="round" stroke-linejoin="round">
    <path d="M20 6 9 17l-5-5"/>
  </symbol>
  <symbol id="i-heart" viewBox="0 0 24 24" fill="currentColor">
    <path d="M12 21s-7.5-4.6-10-9.2C.3 8.4 1.7 5 5 5c2 0 3.2 1.1 4 2.3C9.8 6.1 11 5 13 5c3.3 0 4.7 3.4 3 6.8C19.5 16.4 12 21 12 21z"/>
  </symbol>
  <symbol id="i-home" viewBox="0 0 24 24" fill="none" stroke="currentColor" stroke-width="2" stroke-linecap="round" stroke-linejoin="round">
    <path d="M3 10.5 12 3l9 7.5"/><path d="M5 9.5V21h14V9.5"/><path d="M10 21v-6h4v6"/>
  </symbol>
  <symbol id="i-leaf" viewBox="0 0 24 24" fill="none" stroke="currentColor" stroke-width="2" stroke-linecap="round" stroke-linejoin="round">
    <path d="M11 20A7 7 0 0 1 4 13c0-5 4-9 16-9 0 9-4 13-9 16z"/><path d="M9 18c2-3 4-5 8-7"/>
  </symbol>
  <symbol id="i-pin" viewBox="0 0 24 24" fill="none" stroke="currentColor" stroke-width="2" stroke-linecap="round" stroke-linejoin="round">
    <path d="M20 10c0 6-8 12-8 12s-8-6-8-12a8 8 0 0 1 16 0z"/><circle cx="12" cy="10" r="3"/>
  </symbol>
  <symbol id="i-msg" viewBox="0 0 24 24" fill="none" stroke="currentColor" stroke-width="2" stroke-linecap="round" stroke-linejoin="round">
    <path d="M21 11.5a8.4 8.4 0 0 1-9 8.4L3 21l1.1-3.7A8.4 8.4 0 1 1 21 11.5z"/>
  </symbol>
  <symbol id="i-gift" viewBox="0 0 24 24" fill="none" stroke="currentColor" stroke-width="2" stroke-linecap="round" stroke-linejoin="round">
    <rect x="3" y="8" width="18" height="13" rx="1.5"/><path d="M3 12h18M12 8v13"/><path d="M12 8S10.5 3 7.5 4.5 9.5 8 12 8zM12 8s1.5-5 4.5-3.5S14.5 8 12 8z"/>
  </symbol>
  <symbol id="i-fb" viewBox="0 0 24 24" fill="currentColor">
    <path d="M22 12a10 10 0 1 0-11.6 9.9v-7H7.9V12h2.5V9.8c0-2.5 1.5-3.9 3.8-3.9 1.1 0 2.2.2 2.2.2v2.5h-1.3c-1.2 0-1.6.8-1.6 1.6V12h2.8l-.4 2.9h-2.4v7A10 10 0 0 0 22 12z"/>
  </symbol>
  <symbol id="i-ig" viewBox="0 0 24 24" fill="none" stroke="currentColor" stroke-width="2" stroke-linecap="round" stroke-linejoin="round">
    <rect x="3" y="3" width="18" height="18" rx="5"/><circle cx="12" cy="12" r="4"/><circle cx="17.3" cy="6.7" r="1" fill="currentColor" stroke="none"/>
  </symbol>
</svg>
